<?xml version="1.0" encoding="utf-8"?>
<!-- Generator: Adobe Illustrator 28.0.0, SVG Export Plug-In . SVG Version: 6.00 Build 0)  -->
<svg version="1.1" id="Слой_1" xmlns="http://www.w3.org/2000/svg" xmlns:xlink="http://www.w3.org/1999/xlink" x="0px" y="0px"
	 width="121px" height="140px" viewBox="0 0 121 140" enable-background="new 0 0 121 140" xml:space="preserve">
<polygon fill-rule="evenodd" clip-rule="evenodd" fill="#FFFFFF" points="60.5,0 90.7505,17.4999 121,34.9997 121,70.0005 
	121,105.0003 90.7505,122.5001 60.5,140 30.2496,122.5001 0,105.0003 0,70.0005 0,34.9997 30.2496,17.4999 "/>
<g>
	
		<polygon fill="none" stroke="#000000" stroke-width="2" stroke-linecap="round" stroke-linejoin="round" stroke-miterlimit="22.9256" points="
		24.8347,61.7076 60.5302,109.0002 96.1536,61.7076 24.8347,61.7076 	"/>
	
		<polyline fill="none" stroke="#000000" stroke-width="2" stroke-linecap="round" stroke-linejoin="round" stroke-miterlimit="22.9256" points="
		48.9062,62.0309 59.6667,102.7523 60.4269,107.2482 60.4941,106.9162 60.5595,107.2482 61.3206,102.7523 72.5684,61.8082 	"/>
	
		<polyline fill="none" stroke="#000000" stroke-width="2" stroke-linecap="round" stroke-linejoin="round" stroke-miterlimit="22.9256" points="
		24.8347,61.1129 32.7611,45.0007 89.3568,45.0007 96.1643,61.1129 	"/>
	
		<polyline fill="none" stroke="#000000" stroke-width="2" stroke-linecap="round" stroke-linejoin="round" stroke-miterlimit="22.9256" points="
		36.8885,45.0818 47.6489,59.8883 48.4101,61.5231 48.4755,61.401 48.5417,61.5231 49.3019,59.8883 60.5497,45.0007 	"/>
	
		<polyline fill="none" stroke="#000000" stroke-width="2" stroke-linecap="round" stroke-linejoin="round" stroke-miterlimit="22.9256" points="
		60.4493,45.0818 71.2089,59.8883 71.9709,61.5231 72.0363,61.401 72.1016,61.5231 72.8627,59.8883 84.1105,45.0007 	"/>
</g>
</svg>
