<?xml version="1.0" encoding="utf-8"?>
<!-- Generator: Adobe Illustrator 28.0.0, SVG Export Plug-In . SVG Version: 6.00 Build 0)  -->
<svg version="1.1" id="Слой_1" xmlns="http://www.w3.org/2000/svg" xmlns:xlink="http://www.w3.org/1999/xlink" x="0px" y="0px"
	 width="90px" height="104px" viewBox="0 0 90 104" enable-background="new 0 0 90 104" xml:space="preserve">
<polygon fill-rule="evenodd" clip-rule="evenodd" fill="#FFFFFF" points="45,0 67.5,13 90,26 90,52 90,77.998 67.5,91 45,104 
	22.5,91 0,77.998 0,52 0,26 22.5,13 "/>
<g>
	<g>
		<g>
			<path stroke="#ECECEC" stroke-width="0.2" stroke-miterlimit="10" d="M32.2637,77h-3.9058c-0.4482,0-0.811-0.3633-0.811-0.8125
				v-2.7617c0-0.4473,0.3628-0.8106,0.811-0.8106h3.9058c0.4482,0,0.811,0.3633,0.811,0.8106v2.7617
				C33.0747,76.6367,32.7119,77,32.2637,77z M29.1689,75.377h2.2837v-1.1387h-2.2837V75.377z"/>
		</g>
		<g>
			<path stroke="#ECECEC" stroke-width="0.2" stroke-miterlimit="10" d="M61.6416,77h-3.9053c-0.4482,0-0.8115-0.3633-0.8115-0.8125
				v-2.7617c0-0.4473,0.3633-0.8106,0.8115-0.8106h3.9053c0.4482,0,0.8105,0.3633,0.8105,0.8106v2.7617
				C62.4521,76.6367,62.0898,77,61.6416,77z M58.5469,75.377h2.2832v-1.1387h-2.2832V75.377z"/>
		</g>
		<g>
			<path stroke="#ECECEC" stroke-width="0.2" stroke-miterlimit="10" d="M64.4023,74.2383H25.5977
				c-1.2066,0-2.189-0.9824-2.189-2.1895V29.1885c0-1.2075,0.9824-2.1885,2.189-2.1885h38.8046c1.2061,0,2.1885,0.981,2.1885,2.1885
				v42.8603C66.5908,73.2559,65.6084,74.2383,64.4023,74.2383z M25.5977,28.6221c-0.3125,0-0.5669,0.2544-0.5669,0.5664v42.8603
				c0,0.3067,0.2597,0.5664,0.5669,0.5664h38.8046c0.3116,0,0.5655-0.2539,0.5655-0.5664V29.1885
				c0-0.312-0.2539-0.5664-0.5655-0.5664H25.5977z"/>
		</g>
		<g>
			<path stroke="#ECECEC" stroke-width="0.2" stroke-miterlimit="10" d="M45,71.6113H26.6733c-0.4482,0-0.811-0.3633-0.811-0.8125
				V30.4395c0-0.4488,0.3628-0.8116,0.811-0.8116H45c0.4482,0,0.8115,0.3628,0.8115,0.8116v40.3593
				C45.8115,71.248,45.4482,71.6113,45,71.6113z M27.4844,69.9883H44.189V31.2495H27.4844V69.9883z"/>
		</g>
		<g>
			<path stroke="#ECECEC" stroke-width="0.2" stroke-miterlimit="10" d="M63.3262,71.6113H45c-0.4473,0-0.811-0.3633-0.811-0.8125
				V30.4395c0-0.4488,0.3637-0.8116,0.811-0.8116h18.3262c0.4482,0,0.8115,0.3628,0.8115,0.8116v40.3593
				C64.1377,71.248,63.7744,71.6113,63.3262,71.6113z M45.8115,69.9883h16.7031V31.2495H45.8115V69.9883z"/>
		</g>
		<g>
			<path stroke="#ECECEC" stroke-width="0.2" stroke-miterlimit="10" d="M39.6782,53.1328c-1.3872,0-2.5161-1.1274-2.5161-2.5141
				c0-1.3868,1.1289-2.5152,2.5161-2.5152s2.5152,1.1284,2.5152,2.5152C42.1934,52.0054,41.0654,53.1328,39.6782,53.1328z
				 M39.6782,49.7261c-0.4927,0-0.894,0.3999-0.894,0.8926c0,0.4921,0.4013,0.8925,0.894,0.8925
				c0.4922,0,0.8931-0.4004,0.8931-0.8925C40.5713,50.126,40.1704,49.7261,39.6782,49.7261z"/>
		</g>
		<g>
			<path stroke="#ECECEC" stroke-width="0.2" stroke-miterlimit="10" d="M50.3232,53.1328c-1.3886,0-2.5166-1.1274-2.5166-2.5141
				c0-1.3868,1.128-2.5152,2.5166-2.5152c1.3858,0,2.5147,1.1284,2.5147,2.5152C52.8379,52.0054,51.709,53.1328,50.3232,53.1328z
				 M50.3232,49.7261c-0.4931,0-0.8945,0.3999-0.8945,0.8926c0,0.4921,0.4014,0.8925,0.8945,0.8925
				c0.4922,0,0.8926-0.4004,0.8926-0.8925C51.2158,50.126,50.8154,49.7261,50.3232,49.7261z"/>
		</g>
	</g>
</g>
</svg>
