<?xml version="1.0" encoding="utf-8"?>
<!-- Generator: Adobe Illustrator 28.0.0, SVG Export Plug-In . SVG Version: 6.00 Build 0)  -->
<svg version="1.1" id="Слой_1" xmlns="http://www.w3.org/2000/svg" xmlns:xlink="http://www.w3.org/1999/xlink" x="0px" y="0px"
	 width="90px" height="104px" viewBox="0 0 90 104" enable-background="new 0 0 90 104" xml:space="preserve">
<polygon fill-rule="evenodd" clip-rule="evenodd" fill="#FFFFFF" points="45,0 67.5,13 90,26 90,52 90,77.998 67.5,91 45,104 
	22.5,91 0,77.998 0,52 0,26 22.5,13 "/>
<g>
	<path fill="#FFFFFF" stroke="#000000" stroke-width="1.5" stroke-miterlimit="10" d="M69.0342,48.6982h0.8056
		c1.1934,0,2.1602-0.9668,2.1602-2.1596v-1.1944c0-1.1933-0.9668-2.1601-2.1602-2.1601h-3.4277L69.0342,48.6982z"/>
	
		<path fill="#FFFFFF" stroke="#000000" stroke-width="1.5" stroke-linecap="round" stroke-linejoin="round" stroke-miterlimit="10" d="
		M30.7285,72.25h-4.3198c-1.1929,0-2.1602-0.9668-2.1602-2.1602v-7.1269h8.6402v7.1269C32.8887,71.2832,31.9214,72.25,30.7285,72.25
		z"/>
	<path fill="#FFFFFF" stroke="#000000" stroke-width="1.5" stroke-miterlimit="10" d="M20.8872,48.6982h-0.727
		c-1.1929,0-2.1602-0.9668-2.1602-2.1596v-1.1944c0-1.1933,0.9673-2.1601,2.1602-2.1601h3.4272L20.8872,48.6982z"/>
	
		<path fill="#FFFFFF" stroke="#000000" stroke-width="1.5" stroke-linecap="round" stroke-linejoin="round" stroke-miterlimit="10" d="
		M59.2715,72.25h4.3193c1.1934,0,2.1602-0.9668,2.1602-2.1602v-7.1269h-8.6397v7.1269C57.1113,71.2832,58.0781,72.25,59.2715,72.25z
		"/>
	<g>
		<path fill="#FFFFFF" stroke="#000000" stroke-width="1.5" stroke-miterlimit="10" d="M70.0713,55.5508
			c0-3.3213-0.9014-6.5977-2.209-9.6094H22.1377c-1.3086,3.0117-2.2095,6.2881-2.2095,9.6094v3.6738h50.1431V55.5508z"/>
		<path fill="#FFFFFF" stroke="#000000" stroke-width="1.5" stroke-miterlimit="10" d="M60.0469,33.9854
			c-1.2549-1.4278-3.0098-2.2349-4.8555-2.2349H34.8086c-1.8462,0-3.6011,0.8071-4.8545,2.2349
			c-2.1851,2.4873-5.5913,6.8378-7.8164,11.956h45.7246C65.6367,40.8232,62.2305,36.4727,60.0469,33.9854z"/>
		<path fill="#FFFFFF" stroke="#000000" stroke-width="1.5" stroke-miterlimit="10" d="M54.4395,64.1777h-18.879
			c-0.8374,0-1.6567,0.2432-2.3588,0.7002l-3.2447,2.1143h30.086l-3.2442-2.1143C56.0957,64.4209,55.2764,64.1777,54.4395,64.1777z"
			/>
		<path fill="#FFFFFF" stroke="#000000" stroke-width="1.5" stroke-miterlimit="10" d="M19.9282,59.2246v3.4492
			c0,2.3848,1.9346,4.3184,4.3203,4.3184h5.7085l3.2447-2.1143c0.7021-0.457,1.5214-0.7002,2.3588-0.7002h18.879
			c0.8369,0,1.6562,0.2432,2.3593,0.7002l3.2442,2.1143h5.708c2.3857,0,4.3203-1.9336,4.3203-4.3184v-3.4492H19.9282z"/>
	</g>
	<path fill="#FFFFFF" stroke="#000000" stroke-width="1.5" stroke-miterlimit="10" d="M34.0176,54.7432h-8.7378
		c-0.5698,0-1.0313-0.4619-1.0313-1.0313v-2.2578c0-0.5693,0.4615-1.0308,1.0313-1.0308h8.7378
		c0.5693,0,1.0312,0.4615,1.0312,1.0308v2.2578C35.0488,54.2813,34.5869,54.7432,34.0176,54.7432z"/>
	<path fill="#FFFFFF" stroke="#000000" stroke-width="1.5" stroke-miterlimit="10" d="M64.6719,54.7432h-8.6895
		c-0.5693,0-1.0312-0.4619-1.0312-1.0313v-2.2578c0-0.5693,0.4619-1.0308,1.0312-1.0308h8.7383
		c0.5684,0,1.0303,0.4615,1.0303,1.0308v2.209C65.751,54.2598,65.2676,54.7432,64.6719,54.7432z"/>
	
		<line fill="#FFFFFF" stroke="#000000" stroke-width="1.5" stroke-miterlimit="10" x1="35.0488" y1="52.6318" x2="54.9512" y2="52.6318"/>
</g>
</svg>
