<?xml version="1.0" encoding="utf-8"?>
<!-- Generator: Adobe Illustrator 28.0.0, SVG Export Plug-In . SVG Version: 6.00 Build 0)  -->
<svg version="1.1" id="Слой_1" xmlns="http://www.w3.org/2000/svg" xmlns:xlink="http://www.w3.org/1999/xlink" x="0px" y="0px"
	 width="90px" height="104px" viewBox="0 0 90 104" enable-background="new 0 0 90 104" xml:space="preserve">
<polygon fill-rule="evenodd" clip-rule="evenodd" fill="#FFFFFF" points="45,0 67.5,13 90,26 90,52 90,77.998 67.5,91 45,104 
	22.5,91 0,77.998 0,52 0,26 22.5,13 "/>
<g>
	<g>
		<g>
			<path stroke="#FFFFFF" stroke-miterlimit="10" d="M32.1563,43.3994h-5.0362c-0.7344,0-1.3301-0.5942-1.3301-1.3291v-8.1992
				c0-0.7334,0.5957-1.3286,1.3301-1.3286h5.0362c0.7343,0,1.3291,0.5952,1.3291,1.3286v8.1992
				C33.4854,42.8052,32.8906,43.3994,32.1563,43.3994z M28.4482,40.7427h2.3809v-5.5449h-2.3809V40.7427z"/>
		</g>
		<g>
			<path stroke="#FFFFFF" stroke-miterlimit="10" d="M59.335,64.9199h-8.1983c-0.7304,0-1.3262-0.5947-1.3262-1.3281V49.7583
				c0-3.5054-2.8544-6.3589-6.3603-6.3589h-6.252c-0.7304,0-1.3281-0.5942-1.3281-1.3291v-8.1992
				c0-0.7334,0.5977-1.3286,1.3281-1.3286h6.252c9.4902,0,17.2139,7.7246,17.2139,17.2158v13.8335
				C60.6641,64.3252,60.0703,64.9199,59.335,64.9199z M52.4658,62.2627h5.541V49.7583c0-8.0283-6.5293-14.5605-14.5566-14.5605
				h-4.9229v5.5449h4.9229c4.9707,0,9.0156,4.0444,9.0156,9.0156V62.2627z"/>
		</g>
		<g>
			<path stroke="#FFFFFF" stroke-miterlimit="10" d="M59.335,75h-8.1983c-0.7304,0-1.3262-0.5947-1.3262-1.3281v-5.0362
				c0-0.7343,0.5958-1.3291,1.3262-1.3291h8.1983c0.7353,0,1.3291,0.5948,1.3291,1.3291v5.0362
				C60.6641,74.4053,60.0703,75,59.335,75z M52.4658,72.3438h5.541v-2.3809h-5.541V72.3438z"/>
		</g>
		<g>
			<path stroke="#FFFFFF" stroke-miterlimit="10" d="M62.8828,69.9629H47.5947c-0.7334,0-1.3252-0.5957-1.3252-1.3272v-5.0439
				c0-0.7344,0.5918-1.3291,1.3252-1.3291h15.2881c0.7344,0,1.3281,0.5947,1.3281,1.3291v5.0439
				C64.2109,69.3672,63.6172,69.9629,62.8828,69.9629z M48.9238,67.3066h12.6338v-2.3867H48.9238V67.3066z"/>
		</g>
		<g>
			<path stroke="#FFFFFF" stroke-miterlimit="10" d="M37.1982,46.9463h-5.0419c-0.7334,0-1.3272-0.5972-1.3272-1.3281V30.3296
				c0-0.7344,0.5938-1.3296,1.3272-1.3296h5.0419c0.7364,0,1.3291,0.5952,1.3291,1.3296v15.2886
				C38.5273,46.3491,37.9346,46.9463,37.1982,46.9463z M33.4854,44.2881h2.3847V31.6567h-2.3847V44.2881z"/>
		</g>
	</g>
</g>
</svg>
