<?xml version="1.0" encoding="utf-8"?>
<!-- Generator: Adobe Illustrator 28.0.0, SVG Export Plug-In . SVG Version: 6.00 Build 0)  -->
<svg version="1.1" id="Слой_1" xmlns="http://www.w3.org/2000/svg" xmlns:xlink="http://www.w3.org/1999/xlink" x="0px" y="0px"
	 width="90px" height="104px" viewBox="0 0 90 104" enable-background="new 0 0 90 104" xml:space="preserve">
<polygon fill-rule="evenodd" clip-rule="evenodd" fill="#FFFFFF" points="45.0005,0 67.5,13 90,26 90,52 90,77.998 67.5,91 
	45.0005,104 22.5,91 0,77.998 0,52 0,26 22.5,13 "/>
<g>
	<g>
		<path d="M48.2813,71h-5.25c-0.0601,0-0.1197-0.0088-0.1739-0.0273H27.4756C27.4229,70.9912,27.3677,71,27.3096,71h-4.5513
			c-0.6963,0-1.2622-0.5674-1.2622-1.2637V54.6436c0-0.3116,0.2524-0.5645,0.5635-0.5645h5.25c0.3115,0,0.5634,0.2529,0.5634,0.5645
			v9.9492h14.5953v-9.9492c0-0.3116,0.2524-0.5645,0.563-0.5645h5.25c0.3105,0,0.5625,0.2529,0.5625,0.5645v15.7919
			C48.8438,70.7471,48.5918,71,48.2813,71z M43.2056,69.8711h4.5112V55.208h-4.1221v9.9492c0,0.3106-0.2519,0.5635-0.5634,0.5635
			H27.3096c-0.3116,0-0.564-0.2529-0.564-0.5635V55.208h-4.1221v14.5283c0,0.0742,0.0601,0.1348,0.1348,0.1348h4.3843
			c0.0527-0.0176,0.1089-0.0264,0.167-0.0264h15.7217C43.0918,69.8447,43.1504,69.8535,43.2056,69.8711z"/>
	</g>
	<g>
		<path d="M53.0391,44.6436h-6.0723c-0.3105,0-0.5645-0.2535-0.5645-0.5645v-9.9507h-4.684c-0.3116,0-0.564-0.2529-0.564-0.5639
			c0-0.3111,0.2524-0.5645,0.564-0.5645h5.2485c0.3125,0,0.5645,0.2534,0.5645,0.5645v9.9501h5.5078
			c0.3125,0,0.5644,0.2535,0.5644,0.5645C53.6035,44.3901,53.3516,44.6436,53.0391,44.6436z"/>
	</g>
	<g>
		<path d="M67.9395,49.9209c-0.3125,0-0.5625-0.2529-0.5625-0.5645v-15.228h-4.6875c-0.3106,0-0.5625-0.2529-0.5625-0.5639
			c0-0.3111,0.2519-0.5645,0.5625-0.5645h5.25c0.3105,0,0.5644,0.2534,0.5644,0.5645v15.7919
			C68.5039,49.668,68.25,49.9209,67.9395,49.9209z"/>
	</g>
	<g>
		<path d="M27.3086,65.7207c-0.103,0-0.207-0.0283-0.3008-0.0879c-0.2632-0.166-0.3413-0.5137-0.1748-0.7773l19.6592-21.0791
			c0.166-0.2627,0.5156-0.3399,0.7773-0.1748c0.2637,0.1665,0.3418,0.5146,0.1758,0.7778L27.7856,65.458
			C27.6787,65.627,27.4956,65.7207,27.3086,65.7207z"/>
	</g>
	<g>
		<path d="M43.0308,55.208c-0.1031,0-0.2076-0.0293-0.3013-0.0889c-0.2632-0.166-0.3408-0.5136-0.1748-0.7773l19.6601-21.0791
			c0.1661-0.2627,0.5137-0.3423,0.7774-0.1748c0.2617,0.167,0.3418,0.5151,0.1738,0.7778L43.5088,54.9453
			C43.4004,55.1143,43.2178,55.208,43.0308,55.208z"/>
	</g>
	<g>
		<path d="M48.2793,55.208c-0.1016,0-0.207-0.0293-0.3008-0.0889c-0.2637-0.166-0.3398-0.5136-0.1738-0.7773l19.6601-21.0791
			c0.1661-0.2627,0.5137-0.3423,0.7774-0.1748c0.2617,0.167,0.3418,0.5151,0.1758,0.7778L48.7578,54.9453
			C48.6504,55.1143,48.4668,55.208,48.2793,55.208z"/>
	</g>
	<g>
		<path d="M48.2793,71c-0.1016,0-0.207-0.0293-0.3008-0.0889c-0.2637-0.165-0.3398-0.5136-0.1738-0.7763l19.6601-21.0811
			c0.1661-0.2646,0.5137-0.3428,0.7774-0.1748c0.2617,0.166,0.3418,0.5147,0.1758,0.7774l-19.6602,21.08
			C48.6504,70.9063,48.4668,71,48.2793,71z"/>
	</g>
	<g>
		<path d="M22.0591,55.208c-0.1035,0-0.2075-0.0293-0.3013-0.0889c-0.2632-0.166-0.3413-0.5136-0.1748-0.7773l19.6597-21.0791
			c0.166-0.2627,0.5141-0.3423,0.7783-0.1748c0.2632,0.167,0.3408,0.5151,0.1748,0.7778L22.5361,54.9453
			C22.4287,55.1143,22.2456,55.208,22.0591,55.208z"/>
	</g>
	<g>
		<path d="M27.3086,55.208c-0.103,0-0.207-0.0293-0.3008-0.0889c-0.2632-0.166-0.3413-0.5136-0.1748-0.7773l19.6592-21.0791
			c0.166-0.2627,0.5156-0.3423,0.7773-0.1748c0.2637,0.167,0.3418,0.5151,0.1758,0.7778L27.7856,54.9453
			C27.6787,55.1143,27.4956,55.208,27.3086,55.208z"/>
	</g>
</g>
</svg>
