<?xml version="1.0" encoding="utf-8"?>
<!-- Generator: Adobe Illustrator 28.0.0, SVG Export Plug-In . SVG Version: 6.00 Build 0)  -->
<svg version="1.1" id="Слой_1" xmlns="http://www.w3.org/2000/svg" xmlns:xlink="http://www.w3.org/1999/xlink" x="0px" y="0px"
	 width="90px" height="104px" viewBox="0 0 90 104" enable-background="new 0 0 90 104" xml:space="preserve">
<polygon fill-rule="evenodd" clip-rule="evenodd" fill="#FFFFFF" points="45,0 67.5,13 90,25.9995 90,52.0005 90,78 67.5,91 45,104 
	22.5,91 0,78 0,52.0005 0,25.9995 22.5,13 "/>
<g>
	<g>
		<path stroke="#000000" stroke-width="0.5" stroke-miterlimit="10" d="M62.5352,42.4326H42.5029
			c-0.1416,0-0.2568-0.1152-0.2568-0.2558V28.103c0-0.5234,0.3428-0.978,0.8135-1.0815c1.0957-0.2388,2.2129-0.4385,3.3222-0.5923
			c0.3438-0.0483,0.6914-0.0928,1.0625-0.1362c0.3721-0.043,0.6748-0.0742,0.9532-0.0987c0.0263-0.0029,0.0615-0.0063,0.0966-0.0097
			l0.0459-0.0044c0.6963-0.0625,1.3731-0.1084,2.0186-0.1348c0.3174-0.0156,0.6445-0.0268,0.9697-0.0332
			c0.6533-0.0161,1.3301-0.0156,2.0137,0.0015c0.3252,0.0063,0.6514,0.0176,0.9736,0.0332
			c0.6582,0.0283,1.3379,0.0747,2.0147,0.1367c0.04,0.0029,0.083,0.0078,0.1279,0.0122l0.0156,0.0015
			c0.2744,0.0249,0.5772,0.0561,0.92,0.0957c0.3994,0.0464,0.7578,0.0923,1.0937,0.1406c1.0938,0.1523,2.2002,0.3501,3.291,0.5889
			c0.4707,0.1025,0.8125,0.5571,0.8125,1.0805v14.0738C62.791,42.3174,62.6758,42.4326,62.5352,42.4326z M42.7598,41.9209h19.5175
			V28.103c0-0.2846-0.1709-0.5283-0.4082-0.5805c-1.0771-0.2349-2.1718-0.4302-3.2539-0.5806
			c-0.332-0.0483-0.6855-0.0933-1.082-0.1397c-0.3369-0.0385-0.6348-0.0693-0.9092-0.0947l-0.0185-0.0019
			c-0.0391-0.0039-0.0782-0.0078-0.1182-0.0108c-0.6728-0.062-1.3418-0.1079-1.9951-0.1357
			c-0.3184-0.0156-0.6406-0.0269-0.96-0.0327c-0.6826-0.0171-1.3476-0.0176-1.9912-0.0015
			c-0.3232,0.0059-0.6445,0.0171-0.959,0.0327c-0.6386,0.0264-1.3086,0.0713-1.9931,0.1333l-0.0469,0.0039
			c-0.0303,0.0034-0.0606,0.0059-0.0889,0.0093c-0.2851,0.0254-0.583,0.0562-0.9492,0.0981
			c-0.3682,0.043-0.7119,0.087-1.0518,0.1343c-1.0957,0.1524-2.2001,0.3496-3.2832,0.586
			c-0.2382,0.0522-0.4091,0.2959-0.4091,0.5805V41.9209z"/>
		<g>
			<path stroke="#000000" stroke-width="0.5" stroke-miterlimit="10" d="M38.5127,66.0078h-6.6719
				c-0.8193,0-1.4873-0.668-1.4873-1.4863V48.8154c0-0.8193,0.668-1.4883,1.4873-1.4883h6.6719
				c0.1416,0,0.2559,0.1153,0.2559,0.2579v18.167C38.7686,65.8926,38.6543,66.0078,38.5127,66.0078z M31.8408,47.8408
				c-0.5371,0-0.9746,0.4375-0.9746,0.9746v15.7061c0,0.5351,0.4375,0.9726,0.9746,0.9726h6.4151V47.8408H31.8408z"/>
			<path stroke="#000000" stroke-width="0.5" stroke-miterlimit="10" d="M38.5127,60.8633H32.251
				c-1.0449,0-1.8975-0.8516-1.8975-1.8985v-4.5957c0-1.0449,0.8526-1.8969,1.8975-1.8969h6.2617
				c0.1416,0,0.2559,0.1152,0.2559,0.2558v7.8794C38.7686,60.748,38.6543,60.8633,38.5127,60.8633z M32.251,52.9858
				c-0.7627,0-1.3848,0.6197-1.3848,1.3833v4.5957c0,0.7637,0.6221,1.3868,1.3848,1.3868h6.0049v-7.3658H32.251z"/>
			<path stroke="#000000" stroke-width="0.5" stroke-miterlimit="10" d="M38.5127,52.9858h-6.8535
				c-0.7197,0-1.3057-0.4931-1.3057-1.0966v-3.4644c0-0.6055,0.586-1.0977,1.3057-1.0977h6.8535
				c0.1416,0,0.2559,0.1153,0.2559,0.2579c0,0.1416-0.1143,0.2558-0.2559,0.2558h-6.8535c-0.4297,0-0.793,0.2676-0.793,0.584v3.4644
				c0,0.3164,0.3633,0.583,0.793,0.583h6.8535c0.1416,0,0.2559,0.1152,0.2559,0.2558
				C38.7686,52.8706,38.6543,52.9858,38.5127,52.9858z"/>
			<path stroke="#000000" stroke-width="0.5" stroke-miterlimit="10" d="M38.5127,66.0078h-6.8535
				c-0.7197,0-1.3057-0.4902-1.3057-1.0976v-3.4629c0-0.6055,0.586-1.0957,1.3057-1.0957h6.8535
				c0.1416,0,0.2559,0.1132,0.2559,0.2558c0,0.1406-0.1143,0.2559-0.2559,0.2559h-6.8535c-0.4297,0-0.793,0.2656-0.793,0.584v3.4629
				c0,0.3164,0.3633,0.5839,0.793,0.5839h6.8535c0.1416,0,0.2559,0.1153,0.2559,0.2579
				C38.7686,65.8926,38.6543,66.0078,38.5127,66.0078z"/>
		</g>
		<path stroke="#000000" stroke-width="0.5" stroke-miterlimit="10" d="M30.6074,64.6992h-3.4785
			c-0.1416,0-0.2559-0.1152-0.2559-0.2558V48.8936c0-0.1407,0.1143-0.2559,0.2559-0.2559h3.4785
			c0.1406,0,0.2559,0.1152,0.2559,0.2559v15.5498C30.8633,64.584,30.748,64.6992,30.6074,64.6992z M27.3857,64.1855h2.9659V49.1514
			h-2.9659V64.1855z"/>
		<g>
			<path stroke="#000000" stroke-width="0.5" stroke-miterlimit="10" d="M60.3711,74.5195H44.666
				c-0.8203,0-1.4863-0.6699-1.4863-1.4882v-6.6719c0-0.1426,0.1142-0.2578,0.2558-0.2578h18.167
				c0.1407,0,0.2559,0.1152,0.2559,0.2578v6.6719C61.8584,73.8496,61.1914,74.5195,60.3711,74.5195z M43.6914,66.6152v6.4161
				c0,0.5371,0.4365,0.9746,0.9746,0.9746h15.7051c0.5391,0,0.9746-0.4375,0.9746-0.9746v-6.4161H43.6914z"/>
			<path stroke="#000000" stroke-width="0.5" stroke-miterlimit="10" d="M54.8174,74.5195h-4.5967
				c-1.0469,0-1.8975-0.8515-1.8975-1.8984v-6.2617c0-0.1426,0.1153-0.2578,0.2579-0.2578h7.8759
				c0.1426,0,0.2569,0.1152,0.2569,0.2578v6.2617C56.7139,73.668,55.8633,74.5195,54.8174,74.5195z M48.8369,66.6152v6.0059
				c0,0.7637,0.6201,1.3848,1.3838,1.3848h4.5967c0.7627,0,1.3838-0.6211,1.3838-1.3848v-6.0059H48.8369z"/>
			<path stroke="#000000" stroke-width="0.5" stroke-miterlimit="10" d="M47.7393,74.5176h-3.4649
				c-0.6035,0-1.0947-0.586-1.0947-1.3047v-6.8535c0-0.1426,0.1142-0.2578,0.2558-0.2578c0.1407,0,0.2559,0.1152,0.2559,0.2578
				v6.8535c0,0.4297,0.2666,0.791,0.583,0.791h3.4649c0.3164,0,0.5839-0.3613,0.5839-0.791v-6.8535
				c0-0.1426,0.1153-0.2578,0.2579-0.2578c0.1406,0,0.2558,0.1152,0.2558,0.2578v6.8535
				C48.8369,73.9316,48.3447,74.5176,47.7393,74.5176z"/>
			<path stroke="#000000" stroke-width="0.5" stroke-miterlimit="10" d="M60.7637,74.5176h-3.4658
				c-0.6045,0-1.0967-0.586-1.0967-1.3047v-6.8535c0-0.1426,0.1142-0.2578,0.2558-0.2578c0.1426,0,0.2569,0.1152,0.2569,0.2578
				v6.8535c0,0.4297,0.2685,0.791,0.584,0.791h3.4658c0.3154,0,0.582-0.3613,0.582-0.791v-6.8535
				c0-0.1426,0.1152-0.2578,0.2568-0.2578c0.1407,0,0.2559,0.1152,0.2559,0.2578v6.8535
				C61.8584,73.9316,61.3672,74.5176,60.7637,74.5176z"/>
		</g>
		<path stroke="#000000" stroke-width="0.5" stroke-miterlimit="10" d="M60.293,78H44.7451c-0.1416,0-0.2568-0.1152-0.2568-0.2559
			v-3.4785c0-0.1406,0.1152-0.2558,0.2568-0.2558H60.293c0.1406,0,0.2558,0.1152,0.2558,0.2558v3.4785
			C60.5488,77.8848,60.4336,78,60.293,78z M45.001,77.4883h15.0361v-2.9668H45.001V77.4883z"/>
		<path stroke="#000000" stroke-width="0.5" stroke-miterlimit="10" d="M58.3457,66.6152H46.6885
			c-0.1406,0-0.2559-0.1132-0.2559-0.2558v-3.6817c0-0.1425,0.1153-0.2578,0.2559-0.2578c0.1416,0,0.2568,0.1153,0.2568,0.2578
			v3.4239h11.1436V55.2363h-8.9932c-0.1416,0-0.2559-0.1152-0.2559-0.2558c0-0.1407,0.1143-0.2559,0.2559-0.2559h9.25
			c0.1416,0,0.2568,0.1152,0.2568,0.2559v11.3789C58.6025,66.502,58.4873,66.6152,58.3457,66.6152z"/>
		<path stroke="#000000" stroke-width="0.5" stroke-miterlimit="10" d="M48.25,62.752h-9.7432
			c-0.1425,0-0.2558-0.1133-0.2558-0.2559V50.8389c0-0.1407,0.1133-0.2559,0.2558-0.2559h5.5118
			c0.1406,0,0.2558,0.1152,0.2558,0.2559c0,0.1416-0.1152,0.2568-0.2558,0.2568h-5.2559v11.1445H48.25
			c0.3252,0,0.5898-0.2636,0.5898-0.5879v-6.7246c0-0.1406,0.1143-0.2558,0.2559-0.2558c0.1406,0,0.2559,0.1152,0.2559,0.2558
			v6.7246C49.3516,62.2578,48.8574,62.752,48.25,62.752z"/>
		<path stroke="#000000" stroke-width="0.5" stroke-miterlimit="10" d="M62.8691,48.085h-20.705
			c-0.1426,0-0.2559-0.1153-0.2559-0.2559v-4.5703c0-0.1416,0.1133-0.2568,0.2559-0.2568h20.705
			c0.1416,0,0.2569,0.1152,0.2569,0.2568v4.5703C63.126,47.9697,63.0107,48.085,62.8691,48.085z M42.4219,47.5732h20.1914v-4.0586
			H42.4219V47.5732z"/>
		<path stroke="#000000" stroke-width="0.5" stroke-miterlimit="10" d="M61.0195,43.5146H44.0186
			c-0.1416,0-0.2569-0.1152-0.2569-0.2558V42.29c0-0.1425,0.1153-0.2558,0.2569-0.2558h17.0009
			c0.1407,0,0.2559,0.1133,0.2559,0.2558v0.9688C61.2754,43.3994,61.1602,43.5146,61.0195,43.5146z M44.2744,43.002h16.4893v-0.4561
			H44.2744V43.002z"/>
		<path stroke="#000000" stroke-width="0.5" stroke-miterlimit="10" d="M60.1758,55.1836H44.8623
			c-0.6064,0-1.1006-0.4922-1.1006-1.0996v-6.2549c0-0.1426,0.1153-0.2559,0.2569-0.2559h17.0009
			c0.1407,0,0.2559,0.1133,0.2559,0.2559v6.2549C61.2754,54.6914,60.7813,55.1836,60.1758,55.1836z M44.2744,48.085v5.999
			c0,0.3242,0.2637,0.5879,0.5879,0.5879h15.3135c0.3232,0,0.5879-0.2637,0.5879-0.5879v-5.999H44.2744z"/>
		<path stroke="#000000" stroke-width="0.5" stroke-miterlimit="10" d="M60.957,51.1533H44.0186
			c-0.1416,0-0.2569-0.1152-0.2569-0.2568c0-0.1426,0.1153-0.2569,0.2569-0.2569H60.957c0.1426,0,0.2569,0.1143,0.2569,0.2569
			C61.2139,51.0381,61.0996,51.1533,60.957,51.1533z"/>
		<path stroke="#000000" stroke-width="0.5" stroke-miterlimit="10" d="M55.6074,66.6152c-0.1406,0-0.2558-0.1132-0.2558-0.2558
			V54.9805c0-0.1407,0.1152-0.2559,0.2558-0.2559c0.1416,0,0.2559,0.1152,0.2559,0.2559v11.3789
			C55.8633,66.502,55.749,66.6152,55.6074,66.6152z"/>
	</g>
</g>
</svg>
