<?xml version="1.0" encoding="utf-8"?>
<!-- Generator: Adobe Illustrator 28.0.0, SVG Export Plug-In . SVG Version: 6.00 Build 0)  -->
<svg version="1.1" id="Слой_1" xmlns="http://www.w3.org/2000/svg" xmlns:xlink="http://www.w3.org/1999/xlink" x="0px" y="0px"
	 width="90px" height="104px" viewBox="0 0 90 104" enable-background="new 0 0 90 104" xml:space="preserve">
<polygon fill-rule="evenodd" clip-rule="evenodd" fill="#FFFFFF" points="45,0 67.5,13 90,26 90,52 90,77.998 67.5,91 45,104 
	22.5,91 0,77.998 0,52 0,26 22.5,13 "/>
<g>
	
		<line fill="none" stroke="#000000" stroke-width="1.5" stroke-linecap="round" stroke-miterlimit="10" x1="27.8179" y1="31" x2="27.8179" y2="73"/>
	
		<line fill="none" stroke="#000000" stroke-width="1.5" stroke-linecap="round" stroke-miterlimit="10" x1="39.2725" y1="31" x2="39.2725" y2="73"/>
	
		<line fill="none" stroke="#000000" stroke-width="1.5" stroke-linecap="round" stroke-miterlimit="10" x1="50.7266" y1="31" x2="50.7266" y2="73"/>
	
		<line fill="none" stroke="#000000" stroke-width="1.5" stroke-linecap="round" stroke-miterlimit="10" x1="62.1816" y1="31" x2="62.1816" y2="73"/>
	
		<line fill="none" stroke="#000000" stroke-width="1.5" stroke-linecap="round" stroke-miterlimit="10" x1="24" y1="69.1816" x2="66" y2="69.1816"/>
	
		<line fill="none" stroke="#000000" stroke-width="1.5" stroke-linecap="round" stroke-miterlimit="10" x1="24" y1="57.7266" x2="66" y2="57.7266"/>
	
		<line fill="none" stroke="#000000" stroke-width="1.5" stroke-linecap="round" stroke-miterlimit="10" x1="24" y1="46.2725" x2="66" y2="46.2725"/>
	
		<line fill="none" stroke="#000000" stroke-width="1.5" stroke-linecap="round" stroke-miterlimit="10" x1="24" y1="34.8184" x2="66" y2="34.8184"/>
</g>
</svg>
